<svg width="131" height="34" viewBox="0 0 131 34" fill="none" xmlns="http://www.w3.org/2000/svg">
<path d="M28.9447 6.16187H19.2153C13.4465 6.16187 10.562 6.16187 8.7534 7.93373C8.72307 7.96344 8.69305 7.99346 8.66334 8.02378C6.89148 9.8324 6.89148 12.7168 6.89148 18.4857V18.4857" stroke="#F56631" stroke-width="3.79039" stroke-linejoin="round"/>
<path d="M4.13493 26.9177H13.8643C19.6331 26.9177 22.5176 26.9177 24.3262 25.1459C24.3565 25.1162 24.3865 25.0861 24.4162 25.0558C26.1881 23.2472 26.1881 20.3628 26.1881 14.5939V14.5939" stroke="#243832" stroke-width="3.79039" stroke-linejoin="round"/>
<path d="M48.0144 22.7053C47.1322 22.7053 46.3163 22.5565 45.5665 22.2587C44.8277 21.961 44.1826 21.542 43.6313 21.0017C43.091 20.4504 42.6665 19.7998 42.3577 19.05C42.06 18.2892 41.9111 17.4511 41.9111 16.5359C41.9111 15.323 42.1703 14.2645 42.6885 13.3603C43.2068 12.4451 43.9235 11.7339 44.8387 11.2266C45.7649 10.7194 46.818 10.4658 47.9978 10.4658C49.1997 10.4658 50.2583 10.7194 51.1735 11.2266C52.0887 11.7339 52.8054 12.4451 53.3237 13.3603C53.8529 14.2755 54.1176 15.3396 54.1176 16.5525C54.1176 17.4567 53.9632 18.2892 53.6545 19.05C53.3567 19.7998 52.9322 20.4504 52.3809 21.0017C51.8406 21.542 51.1955 21.961 50.4457 22.2587C49.7069 22.5565 48.8965 22.7053 48.0144 22.7053ZM47.9978 20.6875C48.6925 20.6875 49.3045 20.511 49.8337 20.1582C50.363 19.8053 50.7765 19.3202 51.0742 18.7027C51.383 18.0741 51.5374 17.3464 51.5374 16.5194C51.5374 15.7034 51.3885 14.9922 51.0908 14.3858C50.7931 13.7793 50.3796 13.3107 49.8503 12.9799C49.321 12.6491 48.7035 12.4837 47.9978 12.4837C47.3031 12.4837 46.6912 12.6491 46.1619 12.9799C45.6326 13.3107 45.2191 13.7793 44.9214 14.3858C44.6347 14.9812 44.4914 15.6924 44.4914 16.5194C44.4914 17.3574 44.6402 18.0907 44.9379 18.7192C45.2357 19.3367 45.6492 19.8219 46.1784 20.1747C46.7077 20.5165 47.3142 20.6875 47.9978 20.6875ZM58.252 22.7053C57.6566 22.7053 57.1439 22.5785 56.7138 22.3249C56.2948 22.0603 55.975 21.7129 55.7545 21.2829C55.534 20.8418 55.4237 20.3511 55.4237 19.8108V14.1046H57.9047V19.3312C57.9047 19.7943 58.0205 20.1416 58.252 20.3732C58.4836 20.6048 58.8089 20.7205 59.2279 20.7205C59.6028 20.7205 59.9336 20.6323 60.2203 20.4559C60.507 20.2795 60.733 20.0369 60.8984 19.7281C61.0748 19.4084 61.1631 19.0445 61.1631 18.6365L61.3781 20.6709C61.1024 21.2774 60.6999 21.7681 60.1707 22.143C59.6414 22.5179 59.0018 22.7053 58.252 22.7053ZM61.2127 22.5399V20.5551H61.1631V14.1046H63.644V22.5399H61.2127ZM69.4754 22.7219C68.3948 22.7219 67.5898 22.4627 67.0606 21.9445C66.5423 21.4152 66.2832 20.6158 66.2832 19.5462V12.219L68.7642 11.2928V19.6289C68.7642 20.0038 68.8689 20.285 69.0784 20.4724C69.2879 20.6599 69.6132 20.7536 70.0543 20.7536C70.2197 20.7536 70.374 20.7371 70.5174 20.704C70.6607 20.6709 70.8041 20.6323 70.9474 20.5882V22.4738C70.8041 22.5509 70.6001 22.6116 70.3354 22.6557C70.0818 22.6998 69.7951 22.7219 69.4754 22.7219ZM64.7119 15.9901V14.1046H70.9474V15.9901H64.7119ZM75.7446 22.7053C74.5097 22.7053 73.5283 22.4572 72.8005 21.961C72.0728 21.4648 71.6758 20.7812 71.6097 19.9101H73.826C73.8811 20.285 74.0686 20.5717 74.3884 20.7701C74.7192 20.9576 75.1713 21.0513 75.7446 21.0513C76.2629 21.0513 76.6378 20.9797 76.8693 20.8363C77.1119 20.6819 77.2332 20.4669 77.2332 20.1913C77.2332 19.9817 77.1616 19.8219 77.0182 19.7116C76.8859 19.5903 76.6378 19.4911 76.2739 19.4139L74.9176 19.1327C73.9142 18.9232 73.1754 18.6089 72.7013 18.1899C72.2272 17.7599 71.9901 17.2086 71.9901 16.5359C71.9901 15.72 72.3043 15.0859 72.9329 14.6339C73.5614 14.1707 74.438 13.9392 75.5627 13.9392C76.6764 13.9392 77.564 14.1652 78.2256 14.6173C78.8872 15.0584 79.2511 15.6759 79.3173 16.4698H77.1009C77.0568 16.1831 76.9024 15.9681 76.6378 15.8247C76.3732 15.6704 75.9982 15.5932 75.5131 15.5932C75.072 15.5932 74.7412 15.6593 74.5207 15.7916C74.3112 15.9129 74.2064 16.0894 74.2064 16.3209C74.2064 16.5194 74.2946 16.6793 74.4711 16.8006C74.6475 16.9108 74.9397 17.0101 75.3477 17.0983L76.8693 17.4126C77.7184 17.589 78.3579 17.9198 78.788 18.4049C79.229 18.8791 79.4496 19.4414 79.4496 20.092C79.4496 20.919 79.1243 21.5641 78.4737 22.0272C77.8342 22.4793 76.9245 22.7053 75.7446 22.7053ZM86.062 22.5399C85.9959 22.2973 85.9463 22.0382 85.9132 21.7625C85.8911 21.4869 85.8801 21.1671 85.8801 20.8032H85.8139V16.8171C85.8139 16.4753 85.6982 16.2107 85.4666 16.0232C85.2461 15.8247 84.9153 15.7255 84.4742 15.7255C84.0552 15.7255 83.7189 15.7972 83.4653 15.9405C83.2227 16.0838 83.0628 16.2934 82.9856 16.569H80.6204C80.7307 15.8082 81.1221 15.1797 81.7947 14.6835C82.4674 14.1873 83.3881 13.9392 84.5569 13.9392C85.7698 13.9392 86.6961 14.2093 87.3356 14.7496C87.9751 15.2899 88.2949 16.0673 88.2949 17.0818V20.8032C88.2949 21.0789 88.3115 21.3601 88.3445 21.6468C88.3886 21.9224 88.4548 22.2201 88.543 22.5399H86.062ZM83.1179 22.7053C82.2799 22.7053 81.6128 22.4958 81.1166 22.0768C80.6204 21.6468 80.3723 21.0789 80.3723 20.3732C80.3723 19.5903 80.6645 18.9618 81.2489 18.4876C81.8444 18.0025 82.6714 17.6882 83.7299 17.5449L86.1944 17.1975V18.6365L84.1434 18.9508C83.7023 19.0169 83.3771 19.1382 83.1676 19.3146C82.958 19.4911 82.8533 19.7337 82.8533 20.0424C82.8533 20.3181 82.9525 20.5276 83.151 20.6709C83.3495 20.8143 83.6141 20.8859 83.9449 20.8859C84.4632 20.8859 84.9042 20.7481 85.2681 20.4724C85.632 20.1857 85.8139 19.8549 85.8139 19.48L86.0455 20.8032C85.8029 21.4317 85.4335 21.9059 84.9373 22.2257C84.4411 22.5454 83.8347 22.7053 83.1179 22.7053ZM90.3461 22.5399V13.5422C90.3461 12.5278 90.6218 11.7614 91.1731 11.2432C91.7244 10.7249 92.5404 10.4658 93.621 10.4658C93.8526 10.4658 94.0511 10.4768 94.2165 10.4989C94.3929 10.5209 94.5638 10.5595 94.7292 10.6147V12.5167C94.652 12.4837 94.5583 12.4616 94.448 12.4506C94.3377 12.4285 94.2054 12.4175 94.0511 12.4175C93.632 12.4175 93.3233 12.5167 93.1248 12.7152C92.9263 12.9137 92.8271 13.2004 92.8271 13.5753V22.5399H90.3461ZM88.9402 15.9901V14.1046H94.5473V15.9901H88.9402ZM99.5339 22.7053C98.5966 22.7053 97.7807 22.5234 97.086 22.1595C96.3913 21.7846 95.851 21.2663 95.4651 20.6048C95.0902 19.9432 94.9027 19.1823 94.9027 18.3222C94.9027 17.4511 95.0902 16.6903 95.4651 16.0397C95.851 15.3781 96.3858 14.8654 97.0695 14.5015C97.7531 14.1266 98.547 13.9392 99.4512 13.9392C100.322 13.9392 101.078 14.1156 101.717 14.4685C102.357 14.8213 102.853 15.312 103.206 15.9405C103.559 16.569 103.735 17.3078 103.735 18.1568C103.735 18.3333 103.73 18.4987 103.718 18.653C103.707 18.7964 103.691 18.9342 103.669 19.0665H96.3582V17.4291H101.668L101.238 17.7268C101.238 17.0432 101.072 16.5415 100.741 16.2217C100.422 15.8909 99.9805 15.7255 99.4181 15.7255C98.7676 15.7255 98.2603 15.946 97.8965 16.3871C97.5436 16.8281 97.3672 17.4897 97.3672 18.3719C97.3672 19.2319 97.5436 19.8715 97.8965 20.2905C98.2603 20.7095 98.8006 20.919 99.5174 20.919C99.9143 20.919 100.256 20.8528 100.543 20.7205C100.83 20.5882 101.045 20.3732 101.188 20.0755H103.52C103.244 20.8914 102.77 21.5365 102.098 22.0106C101.436 22.4738 100.581 22.7053 99.5339 22.7053ZM110.13 22.5399V20.7205H113.207C113.758 20.7205 114.171 20.5717 114.447 20.274C114.734 19.9652 114.877 19.5407 114.877 19.0004C114.877 18.4491 114.723 18.0135 114.414 17.6937C114.116 17.374 113.686 17.2141 113.124 17.2141H110.13V15.3947H112.992C113.51 15.3947 113.901 15.2734 114.166 15.0308C114.442 14.7772 114.579 14.4078 114.579 13.9226C114.579 13.4375 114.447 13.0736 114.182 12.831C113.929 12.5774 113.548 12.4506 113.041 12.4506H110.13V10.6312H113.587C114.646 10.6312 115.5 10.9014 116.151 11.4417C116.801 11.982 117.127 12.7152 117.127 13.6415C117.127 14.2259 116.989 14.7276 116.713 15.1466C116.437 15.5656 116.068 15.8854 115.605 16.1059C115.142 16.3264 114.623 16.4367 114.05 16.4367L114.133 16.0894C114.75 16.0894 115.307 16.2217 115.803 16.4863C116.311 16.751 116.713 17.1259 117.011 17.611C117.308 18.0852 117.457 18.6475 117.457 19.2981C117.457 19.9487 117.303 20.5221 116.994 21.0182C116.696 21.5034 116.272 21.8783 115.721 22.143C115.18 22.4076 114.541 22.5399 113.802 22.5399H110.13ZM108.046 22.5399V10.6312H110.593V22.5399H108.046ZM124.347 22.7053C123.487 22.7053 122.693 22.5565 121.965 22.2587C121.237 21.95 120.603 21.52 120.063 20.9686C119.534 20.4173 119.12 19.7667 118.822 19.0169C118.525 18.2561 118.376 17.4291 118.376 16.5359C118.376 15.6428 118.519 14.8268 118.806 14.088C119.104 13.3493 119.517 12.7097 120.046 12.1694C120.587 11.6181 121.221 11.1991 121.948 10.9124C122.676 10.6147 123.476 10.4658 124.347 10.4658C125.328 10.4658 126.21 10.6588 126.993 11.0447C127.787 11.4196 128.432 11.9544 128.928 12.6491C129.435 13.3327 129.744 14.1377 129.854 15.0639H127.373C127.23 14.2148 126.883 13.5753 126.331 13.1453C125.78 12.7042 125.124 12.4837 124.363 12.4837C123.691 12.4837 123.095 12.6436 122.577 12.9633C122.07 13.2831 121.673 13.7462 121.386 14.3527C121.099 14.9481 120.956 15.6704 120.956 16.5194C120.956 17.3795 121.099 18.1238 121.386 18.7523C121.684 19.3698 122.092 19.8494 122.61 20.1913C123.128 20.5221 123.724 20.6875 124.396 20.6875C125.113 20.6875 125.747 20.4724 126.298 20.0424C126.85 19.6124 127.208 18.9728 127.373 18.1238H129.888C129.744 19.05 129.419 19.8605 128.912 20.5551C128.404 21.2388 127.759 21.7681 126.977 22.143C126.194 22.5179 125.317 22.7053 124.347 22.7053Z" fill="#243832"/>
</svg>
