<svg width="129" height="32" viewBox="0 0 129 32" fill="none" xmlns="http://www.w3.org/2000/svg">
<rect width="32" height="32" rx="6" fill="white"/>
<path d="M26.0001 7.5H17.7647C13.811 7.5 11.8342 7.5 10.3708 8.36827C9.47751 8.8983 8.73161 9.64419 8.20158 10.5375C7.33331 12.0009 7.33331 13.9777 7.33331 17.9314V17.9314" stroke="#F56631" stroke-width="3.5" stroke-linejoin="round"/>
<path d="M4.99998 25.0687H13.2353C17.189 25.0687 19.1659 25.0687 20.6292 24.2004C21.5226 23.6704 22.2684 22.9245 22.7985 22.0312C23.6667 20.5678 23.6667 18.5909 23.6667 14.6372V14.6372" stroke="#243832" stroke-width="3.5" stroke-linejoin="round"/>
<path d="M46.6646 22.1654C45.7825 22.1654 44.9665 22.0165 44.2167 21.7188C43.4779 21.4211 42.8329 21.0021 42.2816 20.4618C41.7413 19.9105 41.3167 19.2599 41.008 18.5101C40.7103 17.7493 40.5614 16.9112 40.5614 15.996C40.5614 14.7831 40.8205 13.7245 41.3388 12.8204C41.857 11.9052 42.5738 11.1939 43.489 10.6867C44.4152 10.1795 45.4682 9.92589 46.6481 9.92589C47.85 9.92589 48.9085 10.1795 49.8237 10.6867C50.739 11.1939 51.4557 11.9052 51.9739 12.8204C52.5032 13.7356 52.7678 14.7996 52.7678 16.0126C52.7678 16.9167 52.6135 17.7493 52.3047 18.5101C52.007 19.2599 51.5825 19.9105 51.0312 20.4618C50.4909 21.0021 49.8458 21.4211 49.096 21.7188C48.3572 22.0165 47.5468 22.1654 46.6646 22.1654ZM46.6481 20.1475C47.3428 20.1475 47.9547 19.9711 48.484 19.6183C49.0133 19.2654 49.4268 18.7802 49.7245 18.1627C50.0333 17.5342 50.1876 16.8065 50.1876 15.9795C50.1876 15.1635 50.0388 14.4523 49.741 13.8458C49.4433 13.2394 49.0298 12.7707 48.5006 12.4399C47.9713 12.1091 47.3538 11.9438 46.6481 11.9438C45.9534 11.9438 45.3414 12.1091 44.8122 12.4399C44.2829 12.7707 43.8694 13.2394 43.5717 13.8458C43.285 14.4413 43.1416 15.1525 43.1416 15.9795C43.1416 16.8175 43.2905 17.5508 43.5882 18.1793C43.8859 18.7968 44.2994 19.2819 44.8287 19.6348C45.358 19.9766 45.9644 20.1475 46.6481 20.1475ZM56.9023 22.1654C56.3069 22.1654 55.7941 22.0386 55.3641 21.785C54.9451 21.5203 54.6253 21.173 54.4048 20.743C54.1842 20.3019 54.074 19.8112 54.074 19.2709V13.5647H56.555V18.7913C56.555 19.2544 56.6707 19.6017 56.9023 19.8333C57.1339 20.0648 57.4591 20.1806 57.8782 20.1806C58.2531 20.1806 58.5839 20.0924 58.8705 19.916C59.1572 19.7395 59.3833 19.497 59.5487 19.1882C59.7251 18.8684 59.8133 18.5046 59.8133 18.0966L60.0283 20.131C59.7527 20.7375 59.3502 21.2281 58.8209 21.603C58.2917 21.9779 57.6521 22.1654 56.9023 22.1654ZM59.8629 22V20.0152H59.8133V13.5647H62.2943V22H59.8629ZM68.1256 22.1819C67.045 22.1819 66.2401 21.9228 65.7108 21.4046C65.1926 20.8753 64.9334 20.0759 64.9334 19.0063V11.6791L67.4144 10.7529V19.089C67.4144 19.4639 67.5192 19.7451 67.7287 19.9325C67.9382 20.12 68.2635 20.2137 68.7045 20.2137C68.8699 20.2137 69.0243 20.1972 69.1677 20.1641C69.311 20.131 69.4543 20.0924 69.5977 20.0483V21.9338C69.4543 22.011 69.2504 22.0717 68.9857 22.1158C68.7321 22.1599 68.4454 22.1819 68.1256 22.1819ZM63.3622 15.4502V13.5647H69.5977V15.4502H63.3622ZM74.3949 22.1654C73.1599 22.1654 72.1786 21.9173 71.4508 21.4211C70.7231 20.9249 70.3261 20.2413 70.2599 19.3702H72.4763C72.5314 19.7451 72.7189 20.0318 73.0386 20.2302C73.3694 20.4177 73.8215 20.5114 74.3949 20.5114C74.9132 20.5114 75.2881 20.4397 75.5196 20.2964C75.7622 20.142 75.8835 19.927 75.8835 19.6513C75.8835 19.4418 75.8118 19.2819 75.6685 19.1717C75.5362 19.0504 75.2881 18.9511 74.9242 18.874L73.5679 18.5928C72.5645 18.3833 71.8257 18.069 71.3516 17.65C70.8774 17.22 70.6404 16.6686 70.6404 15.996C70.6404 15.1801 70.9546 14.546 71.5831 14.0939C72.2116 13.6308 73.0883 13.3993 74.213 13.3993C75.3267 13.3993 76.2143 13.6253 76.8759 14.0774C77.5375 14.5185 77.9014 15.1359 77.9675 15.9299H75.7512C75.7071 15.6432 75.5527 15.4282 75.2881 15.2848C75.0234 15.1304 74.6485 15.0532 74.1633 15.0532C73.7223 15.0532 73.3915 15.1194 73.171 15.2517C72.9614 15.373 72.8567 15.5494 72.8567 15.781C72.8567 15.9795 72.9449 16.1394 73.1213 16.2607C73.2978 16.3709 73.59 16.4702 73.9979 16.5584L75.5196 16.8726C76.3687 17.0491 77.0082 17.3799 77.4382 17.865C77.8793 18.3392 78.0998 18.9015 78.0998 19.5521C78.0998 20.3791 77.7746 21.0241 77.124 21.4873C76.4844 21.9394 75.5748 22.1654 74.3949 22.1654ZM84.7123 22C84.6461 21.7574 84.5965 21.4983 84.5634 21.2226C84.5414 20.947 84.5304 20.6272 84.5304 20.2633H84.4642V16.2772C84.4642 15.9354 84.3484 15.6707 84.1169 15.4833C83.8963 15.2848 83.5655 15.1856 83.1245 15.1856C82.7055 15.1856 82.3692 15.2572 82.1155 15.4006C81.873 15.5439 81.7131 15.7534 81.6359 16.0291H79.2707C79.3809 15.2683 79.7724 14.6398 80.445 14.1436C81.1176 13.6474 82.0384 13.3993 83.2072 13.3993C84.4201 13.3993 85.3463 13.6694 85.9859 14.2097C86.6254 14.75 86.9452 15.5274 86.9452 16.5418V20.2633C86.9452 20.539 86.9617 20.8202 86.9948 21.1068C87.0389 21.3825 87.1051 21.6802 87.1933 22H84.7123ZM81.7682 22.1654C80.9302 22.1654 80.2631 21.9559 79.7669 21.5369C79.2707 21.1068 79.0226 20.539 79.0226 19.8333C79.0226 19.0504 79.3148 18.4219 79.8992 17.9477C80.4946 17.4626 81.3216 17.1483 82.3802 17.005L84.8446 16.6576V18.0966L82.7937 18.4108C82.3526 18.477 82.0273 18.5983 81.8178 18.7747C81.6083 18.9511 81.5036 19.1937 81.5036 19.5025C81.5036 19.7781 81.6028 19.9876 81.8013 20.131C81.9998 20.2743 82.2644 20.346 82.5952 20.346C83.1134 20.346 83.5545 20.2082 83.9184 19.9325C84.2823 19.6458 84.4642 19.315 84.4642 18.9401L84.6958 20.2633C84.4532 20.8918 84.0838 21.366 83.5876 21.6857C83.0914 22.0055 82.4849 22.1654 81.7682 22.1654ZM88.9964 22V13.0023C88.9964 11.9879 89.2721 11.2215 89.8234 10.7033C90.3747 10.185 91.1907 9.92589 92.2713 9.92589C92.5028 9.92589 92.7013 9.93691 92.8667 9.95896C93.0432 9.98102 93.2141 10.0196 93.3795 10.0747V11.9768C93.3023 11.9438 93.2085 11.9217 93.0983 11.9107C92.988 11.8886 92.8557 11.8776 92.7013 11.8776C92.2823 11.8776 91.9736 11.9768 91.7751 12.1753C91.5766 12.3738 91.4774 12.6605 91.4774 13.0354V22H88.9964ZM87.5905 15.4502V13.5647H93.1975V15.4502H87.5905ZM98.1842 22.1654C97.2469 22.1654 96.4309 21.9835 95.7363 21.6196C95.0416 21.2447 94.5013 20.7264 94.1154 20.0648C93.7405 19.4032 93.553 18.6424 93.553 17.7823C93.553 16.9112 93.7405 16.1504 94.1154 15.4998C94.5013 14.8382 95.0361 14.3255 95.7197 13.9616C96.4034 13.5867 97.1973 13.3993 98.1015 13.3993C98.9726 13.3993 99.7279 13.5757 100.367 13.9285C101.007 14.2814 101.503 14.7721 101.856 15.4006C102.209 16.0291 102.385 16.7679 102.385 17.6169C102.385 17.7934 102.38 17.9588 102.369 18.1131C102.358 18.2565 102.341 18.3943 102.319 18.5266H95.0085V16.8892H100.318L99.8878 17.1869C99.8878 16.5032 99.7224 16.0015 99.3916 15.6818C99.0718 15.351 98.6307 15.1856 98.0684 15.1856C97.4178 15.1856 96.9106 15.4061 96.5467 15.8472C96.1939 16.2882 96.0174 16.9498 96.0174 17.8319C96.0174 18.692 96.1939 19.3316 96.5467 19.7506C96.9106 20.1696 97.4509 20.3791 98.1676 20.3791C98.5646 20.3791 98.9064 20.3129 99.1931 20.1806C99.4798 20.0483 99.6948 19.8333 99.8382 19.5356H102.17C101.895 20.3515 101.42 20.9966 100.748 21.4707C100.086 21.9338 99.2317 22.1654 98.1842 22.1654ZM108.78 22V20.1806H111.857C112.408 20.1806 112.822 20.0318 113.097 19.734C113.384 19.4253 113.527 19.0008 113.527 18.4605C113.527 17.9091 113.373 17.4736 113.064 17.1538C112.767 16.834 112.336 16.6742 111.774 16.6742H108.78V14.8548H111.642C112.16 14.8548 112.552 14.7335 112.816 14.4909C113.092 14.2373 113.23 13.8679 113.23 13.3827C113.23 12.8976 113.097 12.5337 112.833 12.2911C112.579 12.0375 112.199 11.9107 111.691 11.9107H108.78V10.0913H112.237C113.296 10.0913 114.15 10.3614 114.801 10.9017C115.452 11.442 115.777 12.1753 115.777 13.1015C115.777 13.686 115.639 14.1877 115.363 14.6067C115.088 15.0257 114.718 15.3455 114.255 15.566C113.792 15.7865 113.274 15.8968 112.7 15.8968L112.783 15.5494C113.401 15.5494 113.957 15.6818 114.454 15.9464C114.961 16.211 115.363 16.5859 115.661 17.0711C115.959 17.5453 116.108 18.1076 116.108 18.7582C116.108 19.4088 115.953 19.9821 115.644 20.4783C115.347 20.9635 114.922 21.3384 114.371 21.603C113.831 21.8677 113.191 22 112.452 22H108.78ZM106.696 22V10.0913H109.244V22H106.696ZM122.997 22.1654C122.137 22.1654 121.343 22.0165 120.615 21.7188C119.887 21.4101 119.253 20.98 118.713 20.4287C118.184 19.8774 117.77 19.2268 117.473 18.477C117.175 17.7162 117.026 16.8892 117.026 15.996C117.026 15.1029 117.169 14.2869 117.456 13.5481C117.754 12.8093 118.167 12.1698 118.697 11.6295C119.237 11.0782 119.871 10.6592 120.599 10.3725C121.326 10.0747 122.126 9.92589 122.997 9.92589C123.978 9.92589 124.86 10.1189 125.643 10.5048C126.437 10.8797 127.082 11.4145 127.579 12.1091C128.086 12.7928 128.394 13.5977 128.505 14.524H126.024C125.88 13.6749 125.533 13.0354 124.982 12.6053C124.43 12.1643 123.774 11.9438 123.014 11.9438C122.341 11.9438 121.745 12.1036 121.227 12.4234C120.72 12.7432 120.323 13.2063 120.036 13.8128C119.75 14.4082 119.606 15.1304 119.606 15.9795C119.606 16.8396 119.75 17.5839 120.036 18.2124C120.334 18.8299 120.742 19.3095 121.26 19.6513C121.779 19.9821 122.374 20.1475 123.047 20.1475C123.763 20.1475 124.397 19.9325 124.949 19.5025C125.5 19.0724 125.858 18.4329 126.024 17.5839H128.538C128.394 18.5101 128.069 19.3205 127.562 20.0152C127.055 20.6989 126.41 21.2281 125.627 21.603C124.844 21.9779 123.967 22.1654 122.997 22.1654Z" fill="white"/>
</svg>
