<svg width="56" height="56" viewBox="0 0 56 56" fill="none" xmlns="http://www.w3.org/2000/svg">
<g filter="url(#filter0_b_385_495)">
<circle cx="28" cy="28" r="28" fill="#FBE9E9"/>
</g>
<g filter="url(#filter1_d_385_495)">
<rect x="9.33331" y="9.3335" width="37.3333" height="37.3333" rx="18.6667" fill="#D42621"/>
<path d="M27.9965 28.1217C30.5509 24.5001 27.9965 19.557 26.7193 18.3335C26.7193 22.0506 24.4548 24.1342 22.8877 25.6747C21.3219 27.2163 20.3333 29.6389 20.3333 31.7923C20.3333 33.7393 21.1407 35.6066 22.5778 36.9833C24.0149 38.3601 25.9641 39.1335 27.9965 39.1335C30.0289 39.1335 31.978 38.3601 33.4151 36.9833C34.8523 35.6066 35.6596 33.7393 35.6596 31.7923C35.6596 29.9179 34.3109 26.9716 33.1052 25.6747C30.8242 29.3453 29.5406 29.3453 27.9965 28.1217Z" fill="white"/>
</g>
<defs>
<filter id="filter0_b_385_495" x="-4" y="-4" width="64" height="64" filterUnits="userSpaceOnUse" color-interpolation-filters="sRGB">
<feFlood flood-opacity="0" result="BackgroundImageFix"/>
<feGaussianBlur in="BackgroundImageFix" stdDeviation="2"/>
<feComposite in2="SourceAlpha" operator="in" result="effect1_backgroundBlur_385_495"/>
<feBlend mode="normal" in="SourceGraphic" in2="effect1_backgroundBlur_385_495" result="shape"/>
</filter>
<filter id="filter1_d_385_495" x="5.33331" y="9.3335" width="45.3333" height="45.3335" filterUnits="userSpaceOnUse" color-interpolation-filters="sRGB">
<feFlood flood-opacity="0" result="BackgroundImageFix"/>
<feColorMatrix in="SourceAlpha" type="matrix" values="0 0 0 0 0 0 0 0 0 0 0 0 0 0 0 0 0 0 127 0" result="hardAlpha"/>
<feOffset dy="4"/>
<feGaussianBlur stdDeviation="2"/>
<feComposite in2="hardAlpha" operator="out"/>
<feColorMatrix type="matrix" values="0 0 0 0 0 0 0 0 0 0 0 0 0 0 0 0 0 0 0.15 0"/>
<feBlend mode="normal" in2="BackgroundImageFix" result="effect1_dropShadow_385_495"/>
<feBlend mode="normal" in="SourceGraphic" in2="effect1_dropShadow_385_495" result="shape"/>
</filter>
</defs>
</svg>
