<svg width="40" height="40" viewBox="0 0 40 40" fill="none" xmlns="http://www.w3.org/2000/svg">
<g filter="url(#filter0_d_385_498)">
<rect x="4" width="32" height="32" rx="16" fill="#5B615F"/>
<path d="M17.5 13.4998V12.6665C17.5 12.0035 17.7634 11.3676 18.2322 10.8987C18.7011 10.4299 19.337 10.1665 20 10.1665C20.663 10.1665 21.2989 10.4299 21.7678 10.8987C22.2366 11.3676 22.5 12.0035 22.5 12.6665V13.4998" stroke="white" stroke-linecap="round" stroke-linejoin="round"/>
<path d="M16.6667 13.5H23.3333C23.8297 14.2438 24.1174 15.1071 24.1667 16V18.5C24.1667 19.6051 23.7277 20.6649 22.9463 21.4463C22.1649 22.2277 21.1051 22.6667 20 22.6667C18.8949 22.6667 17.8351 22.2277 17.0537 21.4463C16.2723 20.6649 15.8333 19.6051 15.8333 18.5V16C15.8826 15.1071 16.1703 14.2438 16.6667 13.5Z" fill="white" stroke="white" stroke-linecap="round" stroke-linejoin="round"/>
<path d="M12.5 16.8335H15.8333" stroke="white" stroke-linecap="round" stroke-linejoin="round"/>
<path d="M24.1667 16.8335H27.5" stroke="white" stroke-linecap="round" stroke-linejoin="round"/>
<path d="M20 22.6665V17.6665" stroke="#5B615F" stroke-linecap="round" stroke-linejoin="round"/>
<path d="M13.3333 21.8332L16.125 20.1665" stroke="white" stroke-linecap="round" stroke-linejoin="round"/>
<path d="M26.6667 21.8332L23.875 20.1665" stroke="white" stroke-linecap="round" stroke-linejoin="round"/>
<path d="M13.3333 11.8335L16.4583 13.8335" stroke="white" stroke-linecap="round" stroke-linejoin="round"/>
<path d="M26.6667 11.8335L23.5417 13.8335" stroke="white" stroke-linecap="round" stroke-linejoin="round"/>
</g>
<defs>
<filter id="filter0_d_385_498" x="0" y="0" width="40" height="40" filterUnits="userSpaceOnUse" color-interpolation-filters="sRGB">
<feFlood flood-opacity="0" result="BackgroundImageFix"/>
<feColorMatrix in="SourceAlpha" type="matrix" values="0 0 0 0 0 0 0 0 0 0 0 0 0 0 0 0 0 0 127 0" result="hardAlpha"/>
<feOffset dy="4"/>
<feGaussianBlur stdDeviation="2"/>
<feComposite in2="hardAlpha" operator="out"/>
<feColorMatrix type="matrix" values="0 0 0 0 0 0 0 0 0 0 0 0 0 0 0 0 0 0 0.15 0"/>
<feBlend mode="normal" in2="BackgroundImageFix" result="effect1_dropShadow_385_498"/>
<feBlend mode="normal" in="SourceGraphic" in2="effect1_dropShadow_385_498" result="shape"/>
</filter>
</defs>
</svg>
