<svg width="40" height="40" viewBox="0 0 40 40" fill="none" xmlns="http://www.w3.org/2000/svg">
<g filter="url(#filter0_d_385_494)">
<rect x="4" width="32" height="32" rx="16" fill="#AD7311"/>
<g clip-path="url(#clip0_385_494)">
<path d="M22.25 17.2498C21.3333 15.5832 21.0492 15.1665 20 15.1665C18.9508 15.1665 18.5533 15.7957 17.6367 17.4557C16.8517 18.8748 15.265 18.9932 14.8692 20.1982C14.7883 20.419 14.7483 20.7623 14.75 20.9998C14.75 21.9798 15.4058 22.6665 16.25 22.6665C17.2992 22.6665 18.75 21.8332 20 21.8332C21.25 21.8332 22.7008 22.6665 23.75 22.6665C24.5942 22.6665 25.25 21.9807 25.25 20.9998C25.25 20.7623 25.2092 20.419 25.1283 20.1982C24.7325 18.989 23.035 18.669 22.25 17.2498Z" fill="white"/>
<path d="M26.8233 12.7348C26.7163 12.6896 26.6012 12.6663 26.485 12.6665H26.4725C25.86 12.6765 25.1725 13.2915 24.8117 14.2215C24.3792 15.334 24.5783 16.4715 25.26 16.7648C25.3675 16.8107 25.4825 16.8332 25.5983 16.8332C26.2142 16.8332 26.9108 16.2148 27.2742 15.2782C27.7042 14.1657 27.5008 13.0282 26.8233 12.7348Z" fill="white"/>
<path d="M17.895 13.5002C17.9408 13.5002 17.9858 13.5002 18.0308 13.491C18.8175 13.3843 19.3083 12.3693 19.1308 11.2227C18.9617 10.1418 18.2583 9.3335 17.5208 9.3335C17.475 9.3335 17.43 9.3335 17.385 9.34266C16.5983 9.44933 16.1075 10.4643 16.285 11.611C16.455 12.6885 17.1583 13.5002 17.8958 13.5002H17.895Z" fill="white"/>
<path d="M23.7133 11.611C23.8917 10.4643 23.4008 9.44933 22.6133 9.34266C22.5686 9.33647 22.5235 9.33341 22.4783 9.3335C21.7408 9.3335 21.0383 10.1418 20.87 11.2227C20.6917 12.3693 21.1825 13.3843 21.97 13.491C22.015 13.4968 22.06 13.5002 22.105 13.5002C22.8425 13.5002 23.5467 12.6885 23.7133 11.611Z" fill="white"/>
<path d="M14.7416 16.7648C15.4216 16.4715 15.62 15.3323 15.1883 14.2215C14.825 13.2848 14.1291 12.6665 13.5141 12.6665C13.3975 12.6665 13.2833 12.689 13.175 12.7348C12.495 13.0282 12.2966 14.1673 12.7283 15.2782C13.0916 16.2148 13.7875 16.8332 14.4025 16.8332C14.5191 16.8332 14.6333 16.8107 14.7416 16.7648Z" fill="white"/>
</g>
</g>
<defs>
<filter id="filter0_d_385_494" x="0" y="0" width="40" height="40" filterUnits="userSpaceOnUse" color-interpolation-filters="sRGB">
<feFlood flood-opacity="0" result="BackgroundImageFix"/>
<feColorMatrix in="SourceAlpha" type="matrix" values="0 0 0 0 0 0 0 0 0 0 0 0 0 0 0 0 0 0 127 0" result="hardAlpha"/>
<feOffset dy="4"/>
<feGaussianBlur stdDeviation="2"/>
<feComposite in2="hardAlpha" operator="out"/>
<feColorMatrix type="matrix" values="0 0 0 0 0 0 0 0 0 0 0 0 0 0 0 0 0 0 0.15 0"/>
<feBlend mode="normal" in2="BackgroundImageFix" result="effect1_dropShadow_385_494"/>
<feBlend mode="normal" in="SourceGraphic" in2="effect1_dropShadow_385_494" result="shape"/>
</filter>
<clipPath id="clip0_385_494">
<rect width="20" height="20" fill="white" transform="translate(10 6)"/>
</clipPath>
</defs>
</svg>
