<svg width="56" height="56" viewBox="0 0 56 56" fill="none" xmlns="http://www.w3.org/2000/svg">
<g filter="url(#filter0_b_385_490)">
<circle cx="28" cy="28" r="28" fill="#E7F5EC"/>
</g>
<g filter="url(#filter1_d_385_490)">
<rect x="9.33331" y="9.3335" width="37.3333" height="37.3333" rx="18.6667" fill="#0B6B2B"/>
<path d="M22.3333 25.3335V26.3335C22.3333 27.1291 22.6494 27.8922 23.212 28.4548C23.7746 29.0174 24.5377 29.3335 25.3333 29.3335H26.3333" stroke="white" stroke-linecap="round" stroke-linejoin="round"/>
<path d="M34.3333 24.3335V29.3335C34.3333 30.1291 34.0172 30.8922 33.4546 31.4548C32.892 32.0174 32.129 32.3335 31.3333 32.3335H30.3333" stroke="white" stroke-linecap="round" stroke-linejoin="round"/>
<path d="M26.3333 37.3335V21.3335C26.3333 20.8031 26.544 20.2944 26.9191 19.9193C27.2942 19.5442 27.8029 19.3335 28.3333 19.3335C28.8637 19.3335 29.3725 19.5442 29.7475 19.9193C30.1226 20.2944 30.3333 20.8031 30.3333 21.3335V37.3335" fill="white"/>
<path d="M26.3333 37.3335V21.3335C26.3333 20.8031 26.544 20.2944 26.9191 19.9193C27.2942 19.5442 27.8029 19.3335 28.3333 19.3335C28.8637 19.3335 29.3725 19.5442 29.7475 19.9193C30.1226 20.2944 30.3333 20.8031 30.3333 21.3335V37.3335" stroke="white" stroke-linecap="round" stroke-linejoin="round"/>
<path d="M23.3333 37.3335H33.3333" stroke="white" stroke-linecap="round" stroke-linejoin="round"/>
</g>
<defs>
<filter id="filter0_b_385_490" x="-4" y="-4" width="64" height="64" filterUnits="userSpaceOnUse" color-interpolation-filters="sRGB">
<feFlood flood-opacity="0" result="BackgroundImageFix"/>
<feGaussianBlur in="BackgroundImageFix" stdDeviation="2"/>
<feComposite in2="SourceAlpha" operator="in" result="effect1_backgroundBlur_385_490"/>
<feBlend mode="normal" in="SourceGraphic" in2="effect1_backgroundBlur_385_490" result="shape"/>
</filter>
<filter id="filter1_d_385_490" x="5.33331" y="9.3335" width="45.3333" height="45.3335" filterUnits="userSpaceOnUse" color-interpolation-filters="sRGB">
<feFlood flood-opacity="0" result="BackgroundImageFix"/>
<feColorMatrix in="SourceAlpha" type="matrix" values="0 0 0 0 0 0 0 0 0 0 0 0 0 0 0 0 0 0 127 0" result="hardAlpha"/>
<feOffset dy="4"/>
<feGaussianBlur stdDeviation="2"/>
<feComposite in2="hardAlpha" operator="out"/>
<feColorMatrix type="matrix" values="0 0 0 0 0 0 0 0 0 0 0 0 0 0 0 0 0 0 0.15 0"/>
<feBlend mode="normal" in2="BackgroundImageFix" result="effect1_dropShadow_385_490"/>
<feBlend mode="normal" in="SourceGraphic" in2="effect1_dropShadow_385_490" result="shape"/>
</filter>
</defs>
</svg>
