<svg width="40" height="40" viewBox="0 0 40 40" fill="none" xmlns="http://www.w3.org/2000/svg">
<g filter="url(#filter0_d_385_492)">
<rect x="4" width="32" height="32" rx="16" fill="#D42621"/>
<path d="M20 15.9412C22.3333 12.6329 20 8.11765 18.8333 7C18.8333 10.3954 16.7648 12.2988 15.3333 13.7059C13.903 15.1141 13 17.3271 13 19.2941C13 21.0726 13.7375 22.7783 15.0503 24.0359C16.363 25.2935 18.1435 26 20 26C21.8565 26 23.637 25.2935 24.9497 24.0359C26.2625 22.7783 27 21.0726 27 19.2941C27 17.5819 25.768 14.8906 24.6667 13.7059C22.583 17.0588 21.4105 17.0588 20 15.9412Z" fill="white"/>
</g>
<defs>
<filter id="filter0_d_385_492" x="0" y="0" width="40" height="40" filterUnits="userSpaceOnUse" color-interpolation-filters="sRGB">
<feFlood flood-opacity="0" result="BackgroundImageFix"/>
<feColorMatrix in="SourceAlpha" type="matrix" values="0 0 0 0 0 0 0 0 0 0 0 0 0 0 0 0 0 0 127 0" result="hardAlpha"/>
<feOffset dy="4"/>
<feGaussianBlur stdDeviation="2"/>
<feComposite in2="hardAlpha" operator="out"/>
<feColorMatrix type="matrix" values="0 0 0 0 0 0 0 0 0 0 0 0 0 0 0 0 0 0 0.15 0"/>
<feBlend mode="normal" in2="BackgroundImageFix" result="effect1_dropShadow_385_492"/>
<feBlend mode="normal" in="SourceGraphic" in2="effect1_dropShadow_385_492" result="shape"/>
</filter>
</defs>
</svg>
