<svg width="40" height="40" viewBox="0 0 40 40" fill="none" xmlns="http://www.w3.org/2000/svg">
<g filter="url(#filter0_d_385_491)">
<rect x="4" width="32" height="32" rx="16" fill="#3959CB"/>
<path d="M15.8333 19.375C14.7935 19.375 13.7963 18.9799 13.0611 18.2766C12.3259 17.5734 11.9128 16.6196 11.9128 15.625C11.9128 14.6304 12.3259 13.6766 13.0611 12.9733C13.7963 12.2701 14.7935 11.875 15.8333 11.875C16.0789 10.781 16.7973 9.81957 17.8305 9.20226C18.342 8.8966 18.9155 8.68462 19.5181 8.57843C20.1207 8.47223 20.7407 8.4739 21.3426 8.58333C21.9444 8.69277 22.5165 8.90783 23.026 9.21623C23.5356 9.52464 23.9726 9.92035 24.3123 10.3808C24.6519 10.8412 24.8874 11.3573 25.0054 11.8997C25.1234 12.442 25.1216 13 25 13.5417H25.8333C26.6068 13.5417 27.3487 13.849 27.8957 14.3959C28.4427 14.9429 28.75 15.6848 28.75 16.4583C28.75 17.2319 28.4427 17.9737 27.8957 18.5207C27.3487 19.0677 26.6068 19.375 25.8333 19.375H25" fill="white"/>
<path d="M20.8334 17.125L19.1667 20.4583H21.6667L20.0001 23.7917" stroke="white" stroke-linecap="round" stroke-linejoin="round"/>
</g>
<defs>
<filter id="filter0_d_385_491" x="0" y="0" width="40" height="40" filterUnits="userSpaceOnUse" color-interpolation-filters="sRGB">
<feFlood flood-opacity="0" result="BackgroundImageFix"/>
<feColorMatrix in="SourceAlpha" type="matrix" values="0 0 0 0 0 0 0 0 0 0 0 0 0 0 0 0 0 0 127 0" result="hardAlpha"/>
<feOffset dy="4"/>
<feGaussianBlur stdDeviation="2"/>
<feComposite in2="hardAlpha" operator="out"/>
<feColorMatrix type="matrix" values="0 0 0 0 0 0 0 0 0 0 0 0 0 0 0 0 0 0 0.15 0"/>
<feBlend mode="normal" in2="BackgroundImageFix" result="effect1_dropShadow_385_491"/>
<feBlend mode="normal" in="SourceGraphic" in2="effect1_dropShadow_385_491" result="shape"/>
</filter>
</defs>
</svg>
