<svg width="24" height="24" viewBox="0 0 24 24" fill="none" xmlns="http://www.w3.org/2000/svg">
<g clip-path="url(#clip0_405_10619)">
<mask id="mask0_405_10619" style="mask-type:luminance" maskUnits="userSpaceOnUse" x="0" y="0" width="24" height="24">
<path d="M24 0H0V24H24V0Z" fill="white"/>
</mask>
<g mask="url(#mask0_405_10619)">
<path d="M5 7.00002H6C6.53046 7.00002 7.03914 6.7893 7.4142 6.41418C7.78926 6.03912 7.99998 5.53043 7.99998 5C7.99998 4.73478 8.10534 4.48043 8.2929 4.29289C8.4804 4.10535 8.7348 4 9 4H15C15.2652 4 15.5195 4.10535 15.7071 4.29289C15.8947 4.48043 16 4.73478 16 5C16 5.53043 16.2107 6.03912 16.5858 6.41418C16.9609 6.7893 17.4695 7.00002 18 7.00002H19C19.5304 7.00002 20.0392 7.21068 20.4142 7.5858C20.7893 7.96086 21 8.46954 21 9V18C21 18.5304 20.7893 19.0391 20.4142 19.4142C20.0392 19.7893 19.5304 20 19 20H5C4.46957 20 3.96086 19.7893 3.58579 19.4142C3.21071 19.0391 3 18.5304 3 18V9C3 8.46954 3.21071 7.96086 3.58579 7.5858C3.96086 7.21068 4.46957 7.00002 5 7.00002Z" stroke="black" stroke-linecap="round" stroke-linejoin="round"/>
<path d="M9 13C9 13.7956 9.31608 14.5587 9.8787 15.1213C10.4413 15.6839 11.2043 16 12 16C12.7957 16 13.5587 15.6839 14.1213 15.1213C14.6839 14.5587 15 13.7956 15 13C15 12.2043 14.6839 11.4413 14.1213 10.8786C13.5587 10.316 12.7957 10 12 10C11.2043 10 10.4413 10.316 9.8787 10.8786C9.31608 11.4413 9 12.2043 9 13Z" stroke="black" stroke-linecap="round" stroke-linejoin="round"/>
</g>
</g>
<defs>
<clipPath id="clip0_405_10619">
<rect width="24" height="24" fill="white"/>
</clipPath>
</defs>
</svg>
