<svg width="24" height="24" viewBox="0 0 24 24" fill="none" xmlns="http://www.w3.org/2000/svg">
<g clip-path="url(#clip0_405_10591)">
<mask id="mask0_405_10591" style="mask-type:luminance" maskUnits="userSpaceOnUse" x="0" y="0" width="24" height="24">
<path d="M24 0H0V24H24V0Z" fill="white"/>
</mask>
<g mask="url(#mask0_405_10591)">
<path d="M18.333 2C20.293 2 21.893 3.537 21.995 5.472L22 5.667V18.333C22 20.293 20.463 21.893 18.528 21.995L18.333 22H5.667C4.72818 22.0001 3.82509 21.64 3.1438 20.9941C2.46252 20.3481 2.05492 19.4655 2.005 18.528L2 18.333V5.667C2 3.707 3.537 2.107 5.472 2.005L5.667 2H18.333ZM15.707 9.29302C15.5195 9.10552 15.2651 9.00022 15 9.00022C14.7349 9.00022 14.4805 9.10552 14.293 9.29302L11 12.585L9.70698 11.293L9.61302 11.21C9.41202 11.0546 9.15942 10.9815 8.90646 11.0056C8.65356 11.0297 8.41926 11.1492 8.25126 11.3397C8.0832 11.5303 7.99404 11.7777 8.00178 12.0316C8.00952 12.2856 8.11362 12.527 8.29302 12.707L10.293 14.707L10.387 14.79C10.5794 14.9393 10.8197 15.0132 11.0627 14.9979C11.3057 14.9826 11.5348 14.8792 11.707 14.707L15.707 10.707L15.79 10.613C15.9392 10.4206 16.0132 10.1804 15.9979 9.9373C15.9826 9.6943 15.8792 9.46522 15.707 9.29302Z" fill="black"/>
</g>
</g>
<defs>
<clipPath id="clip0_405_10591">
<rect width="24" height="24" fill="white"/>
</clipPath>
</defs>
</svg>
