<svg width="16" height="17" viewBox="0 0 16 17" fill="none" xmlns="http://www.w3.org/2000/svg">
<g clip-path="url(#clip0_417_334)">
<path d="M2 8.5C2 9.28793 2.15519 10.0681 2.45672 10.7961C2.75825 11.5241 3.20021 12.1855 3.75736 12.7426C4.31451 13.2998 4.97595 13.7417 5.7039 14.0433C6.43185 14.3448 7.21207 14.5 8 14.5C8.78793 14.5 9.56815 14.3448 10.2961 14.0433C11.0241 13.7417 11.6855 13.2998 12.2426 12.7426C12.7998 12.1855 13.2417 11.5241 13.5433 10.7961C13.8448 10.0681 14 9.28793 14 8.5C14 7.71207 13.8448 6.93185 13.5433 6.2039C13.2417 5.47595 12.7998 4.81451 12.2426 4.25736C11.6855 3.70021 11.0241 3.25825 10.2961 2.95672C9.56815 2.65519 8.78793 2.5 8 2.5C7.21207 2.5 6.43185 2.65519 5.7039 2.95672C4.97595 3.25825 4.31451 3.70021 3.75736 4.25736C3.20021 4.81451 2.75825 5.47595 2.45672 6.2039C2.15519 6.93185 2 7.71207 2 8.5Z" stroke="#5B615F" stroke-linecap="round" stroke-linejoin="round"/>
<path d="M6 8.50002L7.33333 9.83335L10 7.16669" stroke="#5B615F" stroke-linecap="round" stroke-linejoin="round"/>
</g>
<defs>
<clipPath id="clip0_417_334">
<rect width="16" height="16" fill="white" transform="translate(0 0.5)"/>
</clipPath>
</defs>
</svg>
