<svg width="24" height="24" viewBox="0 0 24 24" fill="none" xmlns="http://www.w3.org/2000/svg">
<path d="M9.75 10.0498L14.25 14.5498M14.25 10.0498L9.75 14.5498M21 12.2998C21 13.4817 20.7672 14.652 20.3149 15.744C19.8626 16.8359 19.1997 17.828 18.364 18.6638C17.5282 19.4995 16.5361 20.1624 15.4442 20.6147C14.3522 21.067 13.1819 21.2998 12 21.2998C10.8181 21.2998 9.64776 21.067 8.55582 20.6147C7.46394 20.1624 6.47178 19.4995 5.63604 18.6638C4.80031 17.828 4.13738 16.8359 3.68509 15.744C3.23279 14.652 3 13.4817 3 12.2998C3 9.91288 3.94821 7.62364 5.63604 5.93584C7.32384 4.24801 9.61308 3.2998 12 3.2998C14.3869 3.2998 16.6762 4.24801 18.364 5.93584C20.0518 7.62364 21 9.91288 21 12.2998Z" stroke="black" stroke-width="1.5" stroke-linecap="round" stroke-linejoin="round"/>
</svg>
