<svg width="54" height="54" viewBox="0 0 54 54" fill="none" xmlns="http://www.w3.org/2000/svg">
<path d="M27 54C41.9117 54 54 41.9117 54 27C54 12.0883 41.9117 0 27 0C12.0883 0 0 12.0883 0 27C0 41.9117 12.0883 54 27 54Z" fill="#3478F5" fill-opacity="0.2"/>
<path d="M27 39.96C34.1577 39.96 39.96 34.1577 39.96 27C39.96 19.8424 34.1577 14.04 27 14.04C19.8424 14.04 14.04 19.8424 14.04 27C14.04 34.1577 19.8424 39.96 27 39.96Z" fill="white"/>
<path d="M26.9997 37.8C32.9644 37.8 37.7997 32.9646 37.7997 27C37.7997 21.0353 32.9644 16.2 26.9997 16.2C21.035 16.2 16.1997 21.0353 16.1997 27C16.1997 32.9646 21.035 37.8 26.9997 37.8Z" fill="#3478F5"/>
</svg>
