<svg width="24" height="24" viewBox="0 0 24 24" fill="none" xmlns="http://www.w3.org/2000/svg">
<g clip-path="url(#clip0_405_10657)">
<mask id="mask0_405_10657" style="mask-type:luminance" maskUnits="userSpaceOnUse" x="0" y="0" width="24" height="24">
<path d="M24 0H0V24H24V0Z" fill="white"/>
</mask>
<g mask="url(#mask0_405_10657)">
<path d="M3 19C3 19.5304 3.21071 20.0391 3.58579 20.4142C3.96086 20.7893 4.46957 21 5 21C5.53043 21 6.03912 20.7893 6.41424 20.4142C6.7893 20.0391 7.00002 19.5304 7.00002 19C7.00002 18.4696 6.7893 17.9608 6.41424 17.5858C6.03912 17.2107 5.53043 17 5 17C4.46957 17 3.96086 17.2107 3.58579 17.5858C3.21071 17.9608 3 18.4696 3 19Z" stroke="black" stroke-linecap="round" stroke-linejoin="round"/>
<path d="M19 7.00002C19.5304 7.00002 20.0391 6.7893 20.4142 6.41424C20.7893 6.03912 21 5.53043 21 5C21 4.46957 20.7893 3.96086 20.4142 3.58579C20.0391 3.21071 19.5304 3 19 3C18.4696 3 17.9608 3.21071 17.5858 3.58579C17.2107 3.96086 17 4.46957 17 5C17 5.53043 17.2107 6.03912 17.5858 6.41424C17.9608 6.7893 18.4696 7.00002 19 7.00002Z" stroke="black" stroke-linecap="round" stroke-linejoin="round"/>
<path d="M14 5C13.4696 5 12.9609 5.21071 12.5858 5.58579C12.2107 5.96086 12 6.46957 12 6.99997V17C12 17.5305 11.7893 18.0391 11.4142 18.4142C11.0391 18.7893 10.5304 19 10 19" stroke="black" stroke-linecap="round" stroke-linejoin="round"/>
</g>
</g>
<defs>
<clipPath id="clip0_405_10657">
<rect width="24" height="24" fill="white"/>
</clipPath>
</defs>
</svg>
