<svg width="24" height="24" viewBox="0 0 24 24" fill="none" xmlns="http://www.w3.org/2000/svg">
<g clip-path="url(#clip0_405_10701)">
<mask id="mask0_405_10701" style="mask-type:luminance" maskUnits="userSpaceOnUse" x="0" y="0" width="24" height="24">
<path d="M24 0H0V24H24V0Z" fill="white"/>
</mask>
<g mask="url(#mask0_405_10701)">
<path d="M3 12C3 13.1819 3.23279 14.3522 3.68509 15.4442C4.13738 16.5361 4.80031 17.5282 5.63604 18.364C6.47178 19.1997 7.46394 19.8626 8.55582 20.3149C9.64776 20.7672 10.8181 21 12 21C13.1819 21 14.3522 20.7672 15.4442 20.3149C16.5361 19.8626 17.5282 19.1997 18.364 18.364C19.1997 17.5282 19.8626 16.5361 20.3149 15.4442C20.7672 14.3522 21 13.1819 21 12C21 10.8181 20.7672 9.64776 20.3149 8.55582C19.8626 7.46394 19.1997 6.47178 18.364 5.63604C17.5282 4.80031 16.5361 4.13738 15.4442 3.68509C14.3522 3.23279 13.1819 3 12 3C10.8181 3 9.64776 3.23279 8.55582 3.68509C7.46394 4.13738 6.47178 4.80031 5.63604 5.63604C4.80031 6.47178 4.13738 7.46394 3.68509 8.55582C3.23279 9.64776 3 10.8181 3 12Z" stroke="black" stroke-width="1.5" stroke-linecap="round" stroke-linejoin="round"/>
<path d="M12 9V13" stroke="black" stroke-width="2" stroke-linecap="round" stroke-linejoin="round"/>
<path d="M12 16V16.01" stroke="black" stroke-width="2" stroke-linecap="round" stroke-linejoin="round"/>
</g>
</g>
<defs>
<clipPath id="clip0_405_10701">
<rect width="24" height="24" fill="white"/>
</clipPath>
</defs>
</svg>
