<svg width="24" height="24" viewBox="0 0 24 24" fill="none" xmlns="http://www.w3.org/2000/svg">
<path d="M12.389 22.392L12.361 22.407L11.61 22.391L11.54 22.351M12.389 22.392L12.46 22.351M12.389 22.392L12.239 22.1322L12.2431 22.1298M12.389 22.392L12.2473 22.1276L12.2431 22.1298M11.54 22.351C11.1485 22.1191 10.7666 21.8716 10.395 21.609C9.43428 20.9305 8.53662 20.1667 7.713 19.327M11.54 22.351L11.6888 22.0905L11.6909 22.0917M11.54 22.351L11.6929 22.0929C11.6923 22.0925 11.6916 22.0921 11.6909 22.0917M12.46 22.351C12.8511 22.1191 13.2328 21.8716 13.604 21.609C14.5651 20.9305 15.463 20.1667 16.287 19.327M12.46 22.351L12.307 22.093L12.2431 22.1298M12.46 22.351L12.31 22.0912L12.3083 22.0922C12.6921 21.8645 13.0665 21.6217 13.4308 21.3641C14.377 20.696 15.2614 19.9438 16.0727 19.117M12.2431 22.1298L12.2193 22.1426L12.2183 22.1431C12.1511 22.1795 12.0759 22.1985 11.9995 22.1985C11.9242 22.1985 11.8499 22.18 11.7834 22.1446L11.7589 22.1305L11.6909 22.0917M16.287 19.327C18.231 17.337 20.25 14.347 20.25 10.5C20.25 8.31198 19.3808 6.21354 17.8336 4.66637C16.2865 3.1192 14.188 2.25 12 2.25C9.81198 2.25 7.71354 3.1192 6.16638 4.66637C4.6192 6.21354 3.75 8.31198 3.75 10.5C3.75 14.346 5.77 17.337 7.713 19.327M16.287 19.327L16.0727 19.117M16.0727 19.117C16.0729 19.1169 16.0726 19.1171 16.0727 19.117ZM16.0727 19.117C17.989 17.1553 19.95 14.2367 19.95 10.5C19.95 8.39154 19.1124 6.36942 17.6215 4.8785C16.1306 3.38759 14.1085 2.55 12 2.55C9.89154 2.55 7.86942 3.38759 6.37848 4.8785C4.88759 6.36942 4.05 8.39154 4.05 10.5C4.05 14.2358 6.01218 17.1556 7.92756 19.1174M7.713 19.327L7.92714 19.1169C7.92732 19.1171 7.92744 19.1172 7.92756 19.1174M7.713 19.327L7.92756 19.1174M7.92756 19.1174C7.9275 19.1173 7.92762 19.1174 7.92756 19.1174ZM7.92756 19.1174C8.73852 19.944 9.62226 20.6959 10.5681 21.364C10.9325 21.6214 11.3071 21.8642 11.6909 22.0917M12 13.8C12.8752 13.8 13.7146 13.4523 14.3335 12.8335C14.9523 12.2146 15.3 11.3752 15.3 10.5C15.3 9.62478 14.9523 8.78544 14.3335 8.16654C13.7146 7.5477 12.8752 7.2 12 7.2C11.1248 7.2 10.2854 7.5477 9.66654 8.16654C9.0477 8.78544 8.7 9.62478 8.7 10.5C8.7 11.3752 9.0477 12.2146 9.66654 12.8335C10.2854 13.4523 11.1248 13.8 12 13.8Z" stroke="black"/>
</svg>
