<svg width="131" height="34" viewBox="0 0 131 34" fill="none" xmlns="http://www.w3.org/2000/svg">
<path d="M28.9448 6.16187H19.2154C13.4466 6.16187 10.5621 6.16187 8.75352 7.93373C8.72319 7.96344 8.69317 7.99346 8.66346 8.02378C6.8916 9.8324 6.8916 12.7168 6.8916 18.4857V18.4857" stroke="#F56631" stroke-width="3.79039" stroke-linejoin="round"/>
<path d="M4.13432 26.9177H13.8637C19.6325 26.9177 22.517 26.9177 24.3256 25.1459C24.3559 25.1162 24.3859 25.0861 24.4156 25.0558C26.1875 23.2472 26.1875 20.3628 26.1875 14.5939V14.5939" stroke="#243832" stroke-width="3.79039" stroke-linejoin="round"/>
<path d="M48.0142 22.7052C47.1321 22.7052 46.3161 22.5563 45.5663 22.2586C44.8276 21.9609 44.1825 21.5419 43.6312 21.0016C43.0909 20.4503 42.6663 19.7997 42.3576 19.0499C42.0599 18.289 41.911 17.451 41.911 16.5358C41.911 15.3229 42.1701 14.2643 42.6884 13.3602C43.2066 12.445 43.9234 11.7337 44.8386 11.2265C45.7648 10.7193 46.8179 10.4657 47.9977 10.4657C49.1996 10.4657 50.2581 10.7193 51.1734 11.2265C52.0886 11.7337 52.8053 12.445 53.3235 13.3602C53.8528 14.2754 54.1175 15.3394 54.1175 16.5524C54.1175 17.4565 53.9631 18.289 53.6543 19.0499C53.3566 19.7997 52.9321 20.4503 52.3808 21.0016C51.8405 21.5419 51.1954 21.9609 50.4456 22.2586C49.7068 22.5563 48.8964 22.7052 48.0142 22.7052ZM47.9977 20.6873C48.6924 20.6873 49.3043 20.5109 49.8336 20.1581C50.3629 19.8052 50.7764 19.32 51.0741 18.7025C51.3829 18.074 51.5372 17.3463 51.5372 16.5193C51.5372 15.7033 51.3884 14.9921 51.0907 14.3856C50.7929 13.7792 50.3794 13.3105 49.8502 12.9797C49.3209 12.6489 48.7034 12.4835 47.9977 12.4835C47.303 12.4835 46.691 12.6489 46.1618 12.9797C45.6325 13.3105 45.219 13.7792 44.9213 14.3856C44.6346 14.9811 44.4912 15.6923 44.4912 16.5193C44.4912 17.3573 44.6401 18.0906 44.9378 18.7191C45.2355 19.3366 45.649 19.8217 46.1783 20.1746C46.7076 20.5164 47.3141 20.6873 47.9977 20.6873ZM58.2519 22.7052C57.6565 22.7052 57.1437 22.5784 56.7137 22.3248C56.2947 22.0601 55.9749 21.7128 55.7544 21.2828C55.5339 20.8417 55.4236 20.351 55.4236 19.8107V14.1045H57.9046V19.3311C57.9046 19.7942 58.0204 20.1415 58.2519 20.3731C58.4835 20.6046 58.8088 20.7204 59.2278 20.7204C59.6027 20.7204 59.9335 20.6322 60.2202 20.4558C60.5068 20.2793 60.7329 20.0368 60.8983 19.728C61.0747 19.4082 61.1629 19.0444 61.1629 18.6364L61.3779 20.6708C61.1023 21.2773 60.6998 21.7679 60.1705 22.1428C59.6413 22.5177 59.0017 22.7052 58.2519 22.7052ZM61.2125 22.5398V20.555H61.1629V14.1045H63.6439V22.5398H61.2125ZM69.4753 22.7217C68.3946 22.7217 67.5897 22.4626 67.0604 21.9444C66.5422 21.4151 66.2831 20.6157 66.2831 19.5461V12.2189L68.764 11.2927V19.6288C68.764 20.0037 68.8688 20.2849 69.0783 20.4723C69.2878 20.6598 69.6131 20.7535 70.0542 20.7535C70.2195 20.7535 70.3739 20.7369 70.5173 20.7039C70.6606 20.6708 70.804 20.6322 70.9473 20.5881V22.4736C70.804 22.5508 70.6 22.6115 70.3353 22.6556C70.0817 22.6997 69.795 22.7217 69.4753 22.7217ZM64.7118 15.99V14.1045H70.9473V15.99H64.7118ZM75.7445 22.7052C74.5095 22.7052 73.5282 22.4571 72.8004 21.9609C72.0727 21.4647 71.6757 20.7811 71.6095 19.91H73.8259C73.881 20.2849 74.0685 20.5715 74.3882 20.77C74.719 20.9575 75.1711 21.0512 75.7445 21.0512C76.2628 21.0512 76.6377 20.9795 76.8692 20.8362C77.1118 20.6818 77.2331 20.4668 77.2331 20.1911C77.2331 19.9816 77.1614 19.8217 77.0181 19.7115C76.8858 19.5902 76.6377 19.4909 76.2738 19.4138L74.9175 19.1326C73.9141 18.9231 73.1753 18.6088 72.7012 18.1898C72.227 17.7598 71.99 17.2084 71.99 16.5358C71.99 15.7198 72.3042 15.0858 72.9327 14.6337C73.5613 14.1706 74.4379 13.9391 75.5626 13.9391C76.6763 13.9391 77.5639 14.1651 78.2255 14.6172C78.8871 15.0583 79.251 15.6757 79.3171 16.4697H77.1008C77.0567 16.183 76.9023 15.9679 76.6377 15.8246C76.373 15.6702 75.9981 15.593 75.513 15.593C75.0719 15.593 74.7411 15.6592 74.5206 15.7915C74.3111 15.9128 74.2063 16.0892 74.2063 16.3208C74.2063 16.5193 74.2945 16.6792 74.4709 16.8005C74.6474 16.9107 74.9396 17.01 75.3476 17.0982L76.8692 17.4124C77.7183 17.5889 78.3578 17.9197 78.7879 18.4048C79.2289 18.879 79.4494 19.4413 79.4494 20.0919C79.4494 20.9189 79.1242 21.5639 78.4736 22.0271C77.8341 22.4791 76.9244 22.7052 75.7445 22.7052ZM86.0619 22.5398C85.9958 22.2972 85.9461 22.0381 85.9131 21.7624C85.891 21.4868 85.88 21.167 85.88 20.8031H85.8138V16.817C85.8138 16.4752 85.698 16.2105 85.4665 16.0231C85.2459 15.8246 84.9151 15.7254 84.4741 15.7254C84.0551 15.7254 83.7188 15.797 83.4651 15.9404C83.2226 16.0837 83.0627 16.2932 82.9855 16.5689H80.6203C80.7306 15.8081 81.122 15.1795 81.7946 14.6834C82.4672 14.1872 83.388 13.9391 84.5568 13.9391C85.7697 13.9391 86.6959 14.2092 87.3355 14.7495C87.975 15.2898 88.2948 16.0672 88.2948 17.0816V20.8031C88.2948 21.0788 88.3113 21.3599 88.3444 21.6466C88.3885 21.9223 88.4547 22.22 88.5429 22.5398H86.0619ZM83.1178 22.7052C82.2798 22.7052 81.6127 22.4957 81.1165 22.0767C80.6203 21.6466 80.3722 21.0788 80.3722 20.3731C80.3722 19.5902 80.6644 18.9617 81.2488 18.4875C81.8442 18.0024 82.6712 17.6881 83.7298 17.5448L86.1942 17.1974V18.6364L84.1433 18.9506C83.7022 19.0168 83.3769 19.1381 83.1674 19.3145C82.9579 19.4909 82.8532 19.7335 82.8532 20.0423C82.8532 20.3179 82.9524 20.5274 83.1509 20.6708C83.3494 20.8141 83.614 20.8858 83.9448 20.8858C84.4631 20.8858 84.9041 20.748 85.268 20.4723C85.6319 20.1856 85.8138 19.8548 85.8138 19.4799L86.0454 20.8031C85.8028 21.4316 85.4334 21.9058 84.9372 22.2255C84.441 22.5453 83.8345 22.7052 83.1178 22.7052ZM90.346 22.5398V13.5421C90.346 12.5277 90.6217 11.7613 91.173 11.2431C91.7243 10.7248 92.5403 10.4657 93.6209 10.4657C93.8525 10.4657 94.0509 10.4767 94.2163 10.4988C94.3928 10.5208 94.5637 10.5594 94.7291 10.6145V12.5166C94.6519 12.4835 94.5582 12.4615 94.4479 12.4505C94.3376 12.4284 94.2053 12.4174 94.0509 12.4174C93.6319 12.4174 93.3232 12.5166 93.1247 12.7151C92.9262 12.9136 92.827 13.2003 92.827 13.5752V22.5398H90.346ZM88.9401 15.99V14.1045H94.5471V15.99H88.9401ZM99.5338 22.7052C98.5965 22.7052 97.7805 22.5233 97.0859 22.1594C96.3912 21.7845 95.8509 21.2662 95.465 20.6046C95.0901 19.943 94.9026 19.1822 94.9026 18.3221C94.9026 17.451 95.0901 16.6902 95.465 16.0396C95.8509 15.378 96.3857 14.8653 97.0693 14.5014C97.753 14.1265 98.5469 13.9391 99.4511 13.9391C100.322 13.9391 101.077 14.1155 101.717 14.4683C102.357 14.8212 102.853 15.3119 103.206 15.9404C103.558 16.5689 103.735 17.3077 103.735 18.1567C103.735 18.3332 103.729 18.4986 103.718 18.6529C103.707 18.7963 103.691 18.9341 103.669 19.0664H96.3581V17.429H101.667L101.237 17.7267C101.237 17.043 101.072 16.5413 100.741 16.2216C100.421 15.8908 99.9804 15.7254 99.418 15.7254C98.7674 15.7254 98.2602 15.9459 97.8963 16.387C97.5435 16.828 97.3671 17.4896 97.3671 18.3717C97.3671 19.2318 97.5435 19.8714 97.8963 20.2904C98.2602 20.7094 98.8005 20.9189 99.5172 20.9189C99.9142 20.9189 100.256 20.8527 100.543 20.7204C100.829 20.5881 101.044 20.3731 101.188 20.0754H103.52C103.244 20.8913 102.77 21.5364 102.097 22.0105C101.436 22.4736 100.581 22.7052 99.5338 22.7052ZM110.13 22.5398V20.7204H113.206C113.758 20.7204 114.171 20.5715 114.447 20.2738C114.734 19.9651 114.877 19.5406 114.877 19.0003C114.877 18.4489 114.723 18.0134 114.414 17.6936C114.116 17.3738 113.686 17.214 113.124 17.214H110.13V15.3946H112.991C113.51 15.3946 113.901 15.2733 114.166 15.0307C114.441 14.7771 114.579 14.4077 114.579 13.9225C114.579 13.4373 114.447 13.0735 114.182 12.8309C113.929 12.5773 113.548 12.4505 113.041 12.4505H110.13V10.6311H113.587C114.645 10.6311 115.5 10.9012 116.151 11.4415C116.801 11.9818 117.126 12.7151 117.126 13.6413C117.126 14.2257 116.989 14.7275 116.713 15.1465C116.437 15.5655 116.068 15.8852 115.605 16.1058C115.142 16.3263 114.623 16.4366 114.05 16.4366L114.133 16.0892C114.75 16.0892 115.307 16.2216 115.803 16.4862C116.31 16.7508 116.713 17.1257 117.011 17.6109C117.308 18.0851 117.457 18.6474 117.457 19.298C117.457 19.9485 117.303 20.5219 116.994 21.0181C116.696 21.5033 116.272 21.8782 115.721 22.1428C115.18 22.4075 114.541 22.5398 113.802 22.5398H110.13ZM108.046 22.5398V10.6311H110.593V22.5398H108.046ZM124.347 22.7052C123.486 22.7052 122.693 22.5563 121.965 22.2586C121.237 21.9499 120.603 21.5198 120.063 20.9685C119.533 20.4172 119.12 19.7666 118.822 19.0168C118.525 18.256 118.376 17.429 118.376 16.5358C118.376 15.6427 118.519 14.8267 118.806 14.0879C119.103 13.3491 119.517 12.7096 120.046 12.1693C120.587 11.618 121.221 11.1989 121.948 10.9123C122.676 10.6145 123.475 10.4657 124.347 10.4657C125.328 10.4657 126.21 10.6586 126.993 11.0446C127.787 11.4195 128.432 11.9543 128.928 12.6489C129.435 13.3326 129.744 14.1375 129.854 15.0638H127.373C127.23 14.2147 126.883 13.5752 126.331 13.1451C125.78 12.7041 125.124 12.4835 124.363 12.4835C123.69 12.4835 123.095 12.6434 122.577 12.9632C122.07 13.283 121.673 13.7461 121.386 14.3526C121.099 14.948 120.956 15.6702 120.956 16.5193C120.956 17.3794 121.099 18.1236 121.386 18.7522C121.684 19.3697 122.092 19.8493 122.61 20.1911C123.128 20.5219 123.724 20.6873 124.396 20.6873C125.113 20.6873 125.747 20.4723 126.298 20.0423C126.85 19.6122 127.208 18.9727 127.373 18.1236H129.887C129.744 19.0499 129.419 19.8603 128.912 20.555C128.404 21.2387 127.759 21.7679 126.976 22.1428C126.194 22.5177 125.317 22.7052 124.347 22.7052Z" fill="#243832"/>
</svg>
