<svg width="24" height="24" viewBox="0 0 24 24" fill="none" xmlns="http://www.w3.org/2000/svg">
<path d="M18.152 18.301H5.97679C4.87583 18.301 4.35774 16.8762 5.2644 16.2286L6.10631 15.581C6.49487 15.2572 6.81869 14.5448 6.81869 14.0267V10.4C6.81869 7.48573 9.15011 5.1543 12.0644 5.1543C14.9787 5.1543 17.3101 7.48573 17.3101 10.4V14.0267C17.3101 14.6095 17.5692 15.1924 18.0225 15.581L18.8644 16.2286C19.7063 16.8762 19.253 18.301 18.152 18.301Z" stroke="black" stroke-miterlimit="10"/>
<path d="M12.0646 5.21914C12.7122 5.21914 13.3599 5.34867 13.9427 5.54295V5.47819C13.9427 4.442 13.1008 3.6001 12.0646 3.6001C11.0284 3.6001 10.1865 4.442 10.1865 5.47819V5.54295C10.7694 5.34867 11.417 5.21914 12.0646 5.21914Z" stroke="black" stroke-miterlimit="10"/>
<path d="M9.92773 18.3008C10.1868 19.2074 11.0287 19.9198 12.0649 19.9198C13.101 19.9198 13.9429 19.2074 14.202 18.3008H9.92773Z" stroke="black" stroke-miterlimit="10"/>
</svg>
