<svg width="24" height="24" viewBox="0 0 24 24" fill="none" xmlns="http://www.w3.org/2000/svg">
<mask id="mask0_405_10755" style="mask-type:luminance" maskUnits="userSpaceOnUse" x="0" y="0" width="24" height="24">
<path d="M23.7076 0H0.292969V24H23.7076V0Z" fill="white"/>
</mask>
<g mask="url(#mask0_405_10755)">
<path d="M10.0488 12C10.0488 12.5304 10.2544 13.0391 10.6203 13.4142C10.9862 13.7893 11.4826 14 12 14C12.5175 14 13.0138 13.7893 13.3797 13.4142C13.7456 13.0391 13.9512 12.5304 13.9512 12C13.9512 11.4696 13.7456 10.9608 13.3797 10.5858C13.0138 10.2107 12.5175 10 12 10C11.4826 10 10.9862 10.2107 10.6203 10.5858C10.2544 10.9608 10.0488 11.4696 10.0488 12Z" stroke="black" stroke-linecap="round" stroke-linejoin="round"/>
<path d="M20.7807 12C18.4392 16 15.5124 18 12.0002 18C8.48802 18 5.56119 16 3.21973 12C5.56119 7.99998 8.48802 6 12.0002 6C15.5124 6 18.4392 7.99998 20.7807 12Z" stroke="black" stroke-linecap="round" stroke-linejoin="round"/>
</g>
</svg>
