<svg width="24" height="24" viewBox="0 0 24 24" fill="none" xmlns="http://www.w3.org/2000/svg">
<g clip-path="url(#clip0_405_10788)">
<mask id="mask0_405_10788" style="mask-type:luminance" maskUnits="userSpaceOnUse" x="0" y="0" width="24" height="24">
<path d="M24 0H0V24H24V0Z" fill="white"/>
</mask>
<g mask="url(#mask0_405_10788)">
<path d="M15 8H15.01" stroke="black" stroke-linecap="round" stroke-linejoin="round"/>
<path d="M3 6C3 5.20435 3.31607 4.44129 3.87868 3.87868C4.44129 3.31607 5.20435 3 6 3H18C18.7957 3 19.5587 3.31607 20.1213 3.87868C20.6839 4.44129 21 5.20435 21 6V18C21 18.7957 20.6839 19.5587 20.1213 20.1213C19.5587 20.6839 18.7957 21 18 21H6C5.20435 21 4.44129 20.6839 3.87868 20.1213C3.31607 19.5587 3 18.7957 3 18V6Z" stroke="black" stroke-linecap="round" stroke-linejoin="round"/>
<path d="M3 15.9998L7.99998 10.9998C8.928 10.1068 10.072 10.1068 11 10.9998L16 15.9998" stroke="black" stroke-linecap="round" stroke-linejoin="round"/>
<path d="M14 13.9998L15 12.9999C15.928 12.1068 17.072 12.1068 18 12.9999L21 15.9999" stroke="black" stroke-linecap="round" stroke-linejoin="round"/>
</g>
</g>
<defs>
<clipPath id="clip0_405_10788">
<rect width="24" height="24" fill="white"/>
</clipPath>
</defs>
</svg>
