<svg width="24" height="24" viewBox="0 0 24 24" fill="none" xmlns="http://www.w3.org/2000/svg">
<path d="M11.8799 13.8002C13.5367 13.8002 14.8799 12.3228 14.8799 10.5002C14.8799 8.67764 13.5367 7.2002 11.8799 7.2002C10.223 7.2002 8.87988 8.67764 8.87988 10.5002C8.87988 12.3228 10.223 13.8002 11.8799 13.8002Z" stroke="black" stroke-linecap="round" stroke-linejoin="round"/>
<path d="M9.7578 16.3463H13.9973C15.6127 16.3463 17.0446 17.1222 17.9687 18.3143C19.6758 16.699 20.748 14.4134 20.748 11.874C20.748 6.97146 16.7765 3 11.874 3C6.97146 3 3 6.97146 3 11.874C3 14.4134 4.07222 16.699 5.7793 18.3143C6.6963 17.1222 8.13534 16.3463 9.75072 16.3463H9.7578Z" stroke="black" stroke-linecap="round" stroke-linejoin="round"/>
<path d="M17.9685 18.3143C17.0515 17.1221 15.6124 16.3462 13.9971 16.3462H9.75758C8.1422 16.3462 6.71024 17.1221 5.78613 18.3143C7.3733 19.8168 9.5177 20.7479 11.8738 20.7479C14.2299 20.7479 16.3743 19.8168 17.9614 18.3143H17.9685Z" stroke="black" stroke-linecap="round" stroke-linejoin="round"/>
</svg>
