<svg width="28" height="28" viewBox="0 0 28 28" fill="none" xmlns="http://www.w3.org/2000/svg">
<g clip-path="url(#clip0_495_35888)">
<path d="M3.52797 13.5681C3.43321 13.6203 3.35431 13.6971 3.29962 13.7904C3.24493 13.8837 3.21648 13.9901 3.2173 14.0983C3.21811 14.2064 3.24814 14.3124 3.30423 14.4048C3.36031 14.4973 3.44036 14.5729 3.53589 14.6237L9.38338 17.7197L14.2008 12.9023C14.3133 12.7898 14.4659 12.7266 14.625 12.7266C14.7842 12.7266 14.9368 12.7898 15.0493 12.9023C15.1618 13.0148 15.225 13.1674 15.225 13.3266C15.225 13.4857 15.1618 13.6383 15.0493 13.7508L10.2319 18.5682L13.3279 24.4157C13.3786 24.5112 13.4542 24.5913 13.5467 24.6474C13.6392 24.7034 13.7452 24.7335 13.8533 24.7343C13.9615 24.7351 14.0679 24.7067 14.1612 24.652C14.2545 24.5973 14.3313 24.5184 14.3835 24.4236C17.0373 19.5934 18.8469 14.3456 19.7343 8.90629C19.7497 8.81234 19.7425 8.71608 19.7133 8.62546C19.6841 8.53484 19.6337 8.45247 19.5664 8.38515C19.4991 8.31783 19.4167 8.2675 19.3261 8.23831C19.2355 8.20912 19.1392 8.20192 19.0453 8.21729C13.606 9.10468 8.35815 10.9143 3.52797 13.5681Z" fill="#344054"/>
</g>
<defs>
<clipPath id="clip0_495_35888">
<rect width="19.2" height="19.2" fill="white" transform="translate(0.200195 14.1758) rotate(-45)"/>
</clipPath>
</defs>
</svg>
