<svg width="24" height="24" viewBox="0 0 24 24" fill="none" xmlns="http://www.w3.org/2000/svg">
<path d="M14 3V7.00002C14 7.26522 14.1054 7.51956 14.2929 7.70712C14.4804 7.89462 14.7348 7.99998 15 7.99998H19" stroke="black" stroke-linecap="round" stroke-linejoin="round"/>
<path d="M17 21H7.00002C6.46956 21 5.96086 20.7893 5.58579 20.4142C5.21071 20.0392 5 19.5304 5 19V5C5 4.46957 5.21071 3.96086 5.58579 3.58579C5.96086 3.21071 6.46956 3 7.00002 3H14L19 7.99998V19C19 19.5304 18.7893 20.0392 18.4142 20.4142C18.0391 20.7893 17.5304 21 17 21Z" stroke="black" stroke-linecap="round" stroke-linejoin="round"/>
<path d="M9 17H15" stroke="black" stroke-linecap="round" stroke-linejoin="round"/>
<path d="M9 13H15" stroke="black" stroke-linecap="round" stroke-linejoin="round"/>
</svg>
