<svg width="24" height="24" viewBox="0 0 24 24" fill="none" xmlns="http://www.w3.org/2000/svg">
<path d="M19.3024 17.664L20.5564 15.4919C20.8084 15.0539 20.7484 14.496 20.4004 14.124L19.3564 13.0079C19.1044 12.7379 18.9604 12.3779 18.9664 12.0059C18.9664 12.0059 18.9664 11.9999 18.9664 11.9939C18.9664 11.6219 19.1044 11.2619 19.3624 10.9919L20.3884 9.90595C20.7364 9.53395 20.8024 8.97595 20.5504 8.53195L19.2964 6.35995C19.0444 5.92195 18.5284 5.69395 18.0364 5.81395L16.5484 6.15595C16.1824 6.23995 15.8044 6.17995 15.4804 5.99395C15.4804 5.99395 15.4684 5.98795 15.4624 5.98195C15.1444 5.79595 14.9044 5.49595 14.7964 5.14195L14.3704 3.71995C14.2264 3.22795 13.7704 2.89795 13.2604 2.89795H10.7524C10.2424 2.89795 9.79244 3.22795 9.64844 3.71995L9.20444 5.18395C9.09644 5.53195 8.86244 5.83195 8.54444 6.01795C8.54444 6.01795 8.53844 6.01795 8.53244 6.01795C8.20844 6.20995 7.81844 6.26995 7.45244 6.18595L6.00044 5.84395C5.50244 5.72395 4.98644 5.94595 4.73444 6.38995L3.48044 8.56195C3.22844 8.99995 3.28844 9.55795 3.63644 9.92995L4.68044 11.0459C4.93244 11.3159 5.07644 11.6759 5.07044 12.0479C5.07044 12.0479 5.07044 12.0539 5.07044 12.0599C5.07044 12.4319 4.93244 12.7919 4.67444 13.0619L3.64844 14.1479C3.30044 14.5199 3.23444 15.078 3.48644 15.522L4.74044 17.6939C4.99244 18.1319 5.50844 18.3599 6.00044 18.2399L7.48844 17.8979C7.85444 17.8139 8.23244 17.874 8.55644 18.06C8.55644 18.06 8.56844 18.066 8.57444 18.072C8.89244 18.258 9.13244 18.558 9.24044 18.912L9.66644 20.3339C9.81044 20.8259 10.2664 21.1559 10.7764 21.1559H13.2844C13.7944 21.1559 14.2444 20.8259 14.3884 20.3339L14.8324 18.87C14.9404 18.522 15.1744 18.2219 15.4924 18.0359C15.4924 18.0359 15.4984 18.0359 15.5044 18.0359C15.8284 17.8439 16.2184 17.784 16.5844 17.868L18.0364 18.21C18.5344 18.33 19.0504 18.108 19.3024 17.664Z" stroke="black" stroke-linecap="round" stroke-linejoin="round"/>
<path d="M12.0179 15.3479C13.867 15.3479 15.3659 13.8489 15.3659 11.9999C15.3659 10.1508 13.867 8.65186 12.0179 8.65186C10.1689 8.65186 8.66992 10.1508 8.66992 11.9999C8.66992 13.8489 10.1689 15.3479 12.0179 15.3479Z" stroke="black" stroke-linecap="round" stroke-linejoin="round"/>
</svg>
