<svg width="24" height="24" viewBox="0 0 24 24" fill="none" xmlns="http://www.w3.org/2000/svg">
<g clip-path="url(#clip0_405_10820)">
<mask id="mask0_405_10820" style="mask-type:luminance" maskUnits="userSpaceOnUse" x="0" y="0" width="24" height="24">
<path d="M24 0H0V24H24V0Z" fill="white"/>
</mask>
<g mask="url(#mask0_405_10820)">
<path d="M3 12C3 12.7957 3.31607 13.5587 3.87868 14.1213C4.44129 14.6839 5.20435 15 6 15C6.79566 15 7.55874 14.6839 8.1213 14.1213C8.68392 13.5587 9 12.7957 9 12C9 11.2043 8.68392 10.4413 8.1213 9.8787C7.55874 9.31608 6.79566 9 6 9C5.20435 9 4.44129 9.31608 3.87868 9.8787C3.31607 10.4413 3 11.2043 3 12Z" stroke="black" stroke-linecap="round" stroke-linejoin="round"/>
<path d="M15 6C15 6.79566 15.3161 7.55874 15.8787 8.1213C16.4413 8.68392 17.2043 9 18 9C18.7957 9 19.5587 8.68392 20.1213 8.1213C20.6839 7.55874 21 6.79566 21 6C21 5.20435 20.6839 4.44129 20.1213 3.87868C19.5587 3.31607 18.7957 3 18 3C17.2043 3 16.4413 3.31607 15.8787 3.87868C15.3161 4.44129 15 5.20435 15 6Z" stroke="black" stroke-linecap="round" stroke-linejoin="round"/>
<path d="M15 18C15 18.7957 15.3161 19.5587 15.8787 20.1213C16.4413 20.6839 17.2043 21 18 21C18.7957 21 19.5587 20.6839 20.1213 20.1213C20.6839 19.5587 21 18.7957 21 18C21 17.2043 20.6839 16.4413 20.1213 15.8787C19.5587 15.3161 18.7957 15 18 15C17.2043 15 16.4413 15.3161 15.8787 15.8787C15.3161 16.4413 15 17.2043 15 18Z" stroke="black" stroke-linecap="round" stroke-linejoin="round"/>
<path d="M8.7002 10.6998L15.3002 7.2998" stroke="black" stroke-linecap="round" stroke-linejoin="round"/>
<path d="M8.7002 13.2998L15.3002 16.6998" stroke="black" stroke-linecap="round" stroke-linejoin="round"/>
</g>
</g>
<defs>
<clipPath id="clip0_405_10820">
<rect width="24" height="24" fill="white"/>
</clipPath>
</defs>
</svg>
