<svg width="24" height="24" viewBox="0 0 24 24" fill="none" xmlns="http://www.w3.org/2000/svg">
<g clip-path="url(#clip0_405_10830)">
<mask id="mask0_405_10830" style="mask-type:luminance" maskUnits="userSpaceOnUse" x="0" y="0" width="24" height="24">
<path d="M24 0H0V24H24V0Z" fill="white"/>
</mask>
<g mask="url(#mask0_405_10830)">
<path d="M9.99998 5C9.99998 4.46957 10.2107 3.96086 10.5858 3.58579C10.9609 3.21071 11.4696 3 12 3C12.5304 3 13.0392 3.21071 13.4142 3.58579C13.7893 3.96086 14 4.46957 14 5C15.1484 5.54303 16.1274 6.38832 16.8321 7.44528C17.5367 8.5023 17.9404 9.7311 18 11V14C18.0753 14.6217 18.2954 15.2171 18.6428 15.7381C18.9902 16.2592 19.4551 16.6914 20 17H4C4.54494 16.6914 5.00981 16.2592 5.35718 15.7381C5.70456 15.2171 5.92474 14.6217 6 14V11C6.05954 9.7311 6.46328 8.5023 7.16792 7.44528C7.87262 6.38832 8.85158 5.54303 9.99998 5Z" stroke="black" stroke-linecap="round" stroke-linejoin="round"/>
<path d="M9 17V18C9 18.7957 9.31608 19.5587 9.8787 20.1213C10.4413 20.6839 11.2043 21 12 21C12.7957 21 13.5587 20.6839 14.1213 20.1213C14.6839 19.5587 15 18.7957 15 18V17" stroke="black" stroke-linecap="round" stroke-linejoin="round"/>
<path d="M21.0001 6.72702C20.3441 5.30026 19.3916 4.0297 18.2061 3" stroke="black" stroke-linecap="round" stroke-linejoin="round"/>
<path d="M3 6.72702C3.65535 5.30044 4.60715 4.02989 5.792 3" stroke="black" stroke-linecap="round" stroke-linejoin="round"/>
</g>
</g>
<defs>
<clipPath id="clip0_405_10830">
<rect width="24" height="24" fill="white"/>
</clipPath>
</defs>
</svg>
