<svg width="24" height="24" viewBox="0 0 24 24" fill="none" xmlns="http://www.w3.org/2000/svg">
<g clip-path="url(#clip0_405_10847)">
<mask id="mask0_405_10847" style="mask-type:luminance" maskUnits="userSpaceOnUse" x="0" y="0" width="24" height="24">
<path d="M24 0H0V24H24V0Z" fill="white"/>
</mask>
<g mask="url(#mask0_405_10847)">
<path d="M20 11.0002C19.7554 9.2404 18.9391 7.60984 17.6767 6.35968C16.4142 5.10953 14.7758 4.30911 13.0137 4.08175C11.2516 3.85438 9.46362 4.21268 7.92522 5.10144C6.38676 5.99021 5.18325 7.36012 4.5 9.00022M4 5.00019V9.00022H7.99998" stroke="black" stroke-linecap="round" stroke-linejoin="round"/>
<path d="M4 13C4.24456 14.7598 5.06093 16.3904 6.32334 17.6405C7.5858 18.8907 9.22422 19.6911 10.9864 19.9185C12.7484 20.1458 14.5364 19.7876 16.0748 18.8988C17.6132 18.01 18.8168 16.6401 19.5 15M20 19V15H16" stroke="black" stroke-linecap="round" stroke-linejoin="round"/>
</g>
</g>
<defs>
<clipPath id="clip0_405_10847">
<rect width="24" height="24" fill="white"/>
</clipPath>
</defs>
</svg>
