<svg width="24" height="24" viewBox="0 0 24 24" fill="none" xmlns="http://www.w3.org/2000/svg">
<g clip-path="url(#clip0_405_10862)">
<mask id="mask0_405_10862" style="mask-type:luminance" maskUnits="userSpaceOnUse" x="0" y="0" width="24" height="24">
<path d="M24 0H0V24H24V0Z" fill="white"/>
</mask>
<g mask="url(#mask0_405_10862)">
<path d="M7.00047 18.0002C5.75273 18.0002 4.5561 17.5261 3.67383 16.6822C2.79156 15.8383 2.2959 14.6937 2.2959 13.5002C2.2959 12.3067 2.79156 11.1621 3.67383 10.3182C4.5561 9.47431 5.75273 9.0002 7.00047 9.0002C7.29513 7.6874 8.15721 6.53366 9.39705 5.79291C10.0109 5.42612 10.6991 5.17175 11.4222 5.04431C12.1454 4.91687 12.8893 4.91888 13.6116 5.0502C14.3339 5.18152 15.0203 5.43959 15.6317 5.80968C16.2432 6.17978 16.7676 6.65462 17.1752 7.2071C17.5827 7.75964 17.8654 8.37896 18.007 9.02978C18.1486 9.6806 18.1464 10.3501 18.0005 11.0002H19.0005C19.9287 11.0002 20.819 11.3689 21.4753 12.0253C22.1317 12.6817 22.5005 13.572 22.5005 14.5002C22.5005 15.4285 22.1317 16.3187 21.4753 16.9751C20.819 17.6314 19.9287 18.0002 19.0005 18.0002H18.0005" stroke="black" stroke-width="1" stroke-linecap="round" stroke-linejoin="round"/>
<path d="M13 14L11 18H14L12 22" stroke="black" stroke-width="1" stroke-linecap="round" stroke-linejoin="round"/>
</g>
</g>
<defs>
<clipPath id="clip0_405_10862">
<rect width="24" height="24" fill="white"/>
</clipPath>
</defs>
</svg>
