<svg width="24" height="24" viewBox="0 0 24 24" fill="none" xmlns="http://www.w3.org/2000/svg">
<mask id="mask0_405_10869" style="mask-type:luminance" maskUnits="userSpaceOnUse" x="0" y="0" width="24" height="24">
<path d="M23.7076 0H0.292969V24H23.7076V0Z" fill="white"/>
</mask>
<g mask="url(#mask0_405_10869)">
<path d="M14.6341 13.5C13.5609 11.5 13.2282 11 11.9999 11C10.7716 11 10.3062 11.755 9.23308 13.747C8.31405 15.45 6.45651 15.592 5.99308 17.038C5.89843 17.303 5.85162 17.715 5.85357 18C5.85357 19.176 6.62135 20 7.60968 20C8.83796 20 10.5365 19 11.9999 19C13.4633 19 15.1618 20 16.3902 20C17.3784 20 18.1463 19.177 18.1463 18C18.1463 17.715 18.0984 17.303 18.0038 17.038C17.5404 15.587 15.5531 15.203 14.6341 13.5Z" stroke="black" stroke-linecap="round" stroke-linejoin="round"/>
<path d="M19.9888 8.08202C19.8635 8.02772 19.7288 7.99982 19.5927 8H19.5781C18.861 8.012 18.0561 8.75 17.6337 9.866C17.1273 11.201 17.3606 12.566 18.1586 12.918C18.2844 12.973 18.4191 13 18.5547 13C19.2756 13 20.0913 12.258 20.5166 11.134C21.02 9.79904 20.782 8.43404 19.9888 8.08202Z" stroke="black" stroke-linecap="round" stroke-linejoin="round"/>
<path d="M9.53575 9C9.58943 9 9.64211 9 9.6948 8.98902C10.6158 8.86098 11.1904 7.64298 10.9826 6.267C10.7845 4.97 9.96114 4 9.09772 4C9.04404 4 8.99136 4 8.93868 4.011C8.01772 4.139 7.44307 5.357 7.65087 6.73302C7.8499 8.02602 8.67333 9 9.53675 9H9.53575Z" stroke="black" stroke-linecap="round" stroke-linejoin="round"/>
<path d="M16.3472 6.73303C16.556 5.357 15.9813 4.139 15.0594 4.011C15.007 4.00357 14.9542 3.99989 14.9013 4C14.0379 4 13.2155 4.97 13.0184 6.26701C12.8097 7.64299 13.3843 8.86099 14.3062 8.98903C14.3589 8.99599 14.4116 9.00001 14.4643 9.00001C15.3277 9.00001 16.1521 8.02603 16.3472 6.73303Z" stroke="black" stroke-linecap="round" stroke-linejoin="round"/>
<path d="M5.84394 12.918C6.64005 12.566 6.87221 11.199 6.36686 9.866C5.94148 8.74202 5.12687 8 4.40687 8C4.27029 8 4.13663 8.027 4.0098 8.08202C3.2137 8.43404 2.9815 9.80102 3.48687 11.134C3.91224 12.258 4.72687 13 5.44687 13C5.58346 13 5.71712 12.973 5.84394 12.918Z" stroke="black" stroke-linecap="round" stroke-linejoin="round"/>
</g>
</svg>
