<svg width="24" height="24" viewBox="0 0 24 24" fill="none" xmlns="http://www.w3.org/2000/svg">
<g clip-path="url(#clip0_405_10879)">
<mask id="mask0_405_10879" style="mask-type:luminance" maskUnits="userSpaceOnUse" x="0" y="0" width="24" height="24">
<path d="M24 0H0V24H24V0Z" fill="white"/>
</mask>
<g mask="url(#mask0_405_10879)">
<path d="M12 12C14 9.04002 12 5 11 4C11 7.038 9.22698 8.74098 7.99998 10C6.774 11.26 6 13.24 6 15C6 16.5913 6.63216 18.1174 7.75734 19.2427C8.88258 20.3678 10.4087 21 12 21C13.5913 21 15.1174 20.3678 16.2427 19.2427C17.3678 18.1174 18 16.5913 18 15C18 13.468 16.944 11.06 16 10C14.214 13 13.209 13 12 12Z" stroke="black" stroke-linecap="round" stroke-linejoin="round"/>
</g>
</g>
<defs>
<clipPath id="clip0_405_10879">
<rect width="24" height="24" fill="white"/>
</clipPath>
</defs>
</svg>
